<svg width="30" height="24" viewBox="0 0 30 24" fill="none" xmlns="http://www.w3.org/2000/svg">
<path d="M26.3377 0.584961H3.66853C1.64494 0.584961 0 2.2299 0 4.25349V19.747C0 21.7706 1.64494 23.4155 3.66853 23.4155H26.3315C28.3551 23.4155 30 21.7706 30 19.747V4.2597C30.0062 2.23611 28.3613 0.584961 26.3377 0.584961ZM28.3302 19.747C28.3302 20.8457 27.4364 21.7395 26.3377 21.7395H3.66853C2.56983 21.7395 1.67598 20.8457 1.67598 19.747V4.2597C1.67598 3.161 2.56983 2.26715 3.66853 2.26715H26.3315C27.4302 2.26715 28.324 3.161 28.324 4.2597V19.747H28.3302Z" fill="#E2AB3F"/>
<path d="M18.9201 11.8079L26.2572 5.22814C26.5986 4.91777 26.6296 4.39015 26.3193 4.04254C26.0089 3.70114 25.4813 3.6701 25.1337 3.98047L15.0157 13.0618L13.0418 11.2989C13.0356 11.2927 13.0294 11.2865 13.0294 11.2803C12.9859 11.2368 12.9425 11.1996 12.8928 11.1623L4.86054 3.97426C4.51293 3.66389 3.98531 3.69493 3.67494 4.04254C3.36458 4.39015 3.39561 4.91777 3.74322 5.22814L11.1672 11.8638L3.77426 18.7849C3.43906 19.1015 3.42044 19.6291 3.73702 19.9705C3.90461 20.1443 4.12808 20.2375 4.35154 20.2375C4.55638 20.2375 4.76122 20.163 4.92261 20.014L12.4273 12.9935L14.4633 14.8122C14.6247 14.955 14.8233 15.0233 15.0219 15.0233C15.2206 15.0233 15.4254 14.9488 15.5806 14.806L17.6725 12.9314L25.1337 20.0202C25.2951 20.1754 25.5061 20.2499 25.7109 20.2499C25.9344 20.2499 26.1517 20.163 26.3193 19.9892C26.6358 19.654 26.6234 19.1201 26.2882 18.8036L18.9201 11.8079Z" fill="#E2AB3F"/>
</svg>
